<?xml version="1.0" standalone="no"?>
<!DOCTYPE svg PUBLIC "-//W3C//DTD SVG 1.1//EN" "http://www.w3.org/Graphics/SVG/1.1/DTD/svg11.dtd" >
<svg xmlns="http://www.w3.org/2000/svg">
<metadata>Generated by IcoMoon</metadata>
<defs>
<font id="iconfont" horiz-adv-x="1024">
<font-face units-per-em="1024" ascent="716.8" descent="-307.2" />
<missing-glyph horiz-adv-x="1024" />
<glyph unicode="&#x20;" horiz-adv-x="512" d="" />
<glyph unicode="&#xe900;" glyph-name="hook-fill" d="M940.807 391.898v0l-490.153-490.255c-11.563-11.563-27.526-18.726-45.229-18.726s-33.666 7.163-45.229 18.726v0l-277.105 277.105c-11.563 11.563-18.726 27.526-18.726 45.229 0 35.303 28.652 63.955 63.955 63.955 17.703 0 33.666-7.163 45.229-18.726v0l231.876-231.876 444.924 445.026c11.563 11.563 27.526 18.726 45.229 18.726 35.303 0 63.955-28.652 63.955-63.955 0-17.703-7.163-33.666-18.726-45.229z" />
<glyph unicode="&#xe901;" glyph-name="arrowdown" d="M472.859-44.839l-391.508 394.783c-21.591 21.796-21.591 57.202 0 78.998s56.69 21.796 78.281 0l352.317-355.284 352.317 355.284c21.591 21.796 56.69 21.796 78.281 0s21.591-57.202 0-78.998l-391.406-394.783c-21.694-21.796-56.69-21.796-78.281 0z" />
<glyph unicode="&#xe902;" glyph-name="arrowleft" d="M275.059 231.141l394.783 391.406c21.796 21.591 57.202 21.591 78.998 0s21.796-56.69 0-78.281l-355.284-352.317 355.284-352.317c21.796-21.591 21.796-56.69 0-78.281s-57.202-21.591-78.998 0l-394.783 391.508c-21.796 21.591-21.796 56.69 0 78.281z" />
<glyph unicode="&#xe903;" glyph-name="arrowright" d="M748.839 152.859l-394.783-391.406c-21.796-21.591-57.202-21.591-78.998 0s-21.796 56.69 0 78.281l355.284 352.317-355.284 352.214c-21.796 21.591-21.796 56.69 0 78.281s57.202 21.591 78.998 0l394.783-391.406c21.796-21.591 21.796-56.69 0-78.281z" />
<glyph unicode="&#xe904;" glyph-name="arrowup" d="M551.141 428.839l391.406-394.783c21.591-21.796 21.591-57.202 0-78.998s-56.69-21.796-78.281 0l-352.317 355.386-352.317-355.284c-21.591-21.796-56.69-21.796-78.281 0s-21.591 57.202 0 78.998l391.406 394.783c21.694 21.694 56.69 21.694 78.384-0.102z" />
<glyph unicode="&#xe905;" glyph-name="chatline" d="M901.104-85.361h-444.719l-139.064-138.655h-27.731c-30.699 0-55.564 24.866-55.564 55.462v83.193h-111.231c-30.699 0-55.564 24.866-55.564 55.462v582.555c0 30.596 24.866 55.462 55.564 55.462h778.31c30.699 0 55.564-24.866 55.564-55.462v-582.453c0-30.699-24.866-55.564-55.564-55.564zM873.373 524.823h-722.848v-526.991h166.795v-104.17l104.477 104.17h451.473v526.991z" />
<glyph unicode="&#xe906;" glyph-name="chats" d="M723.666 265.625c0 158.814-144.078 287.952-321.209 287.952s-321.209-129.241-321.209-287.952c0-77.36 34.28-147.762 89.844-199.54l-31.108-87.9c-5.219-14.735 0.409-24.149 12.791-24.149 2.865 0 6.037 0.512 9.517 1.535l114.198 34.485c4.4 1.228 8.391 3.377 11.768 6.447 36.634-12.484 75.007-18.828 113.789-18.828 0.205 0 0.409 0 0.512 0 177.028 0 321.106 129.138 321.106 287.952zM402.048 29.349c-33.052 0-65.695 5.423-97.007 16.066-5.526 1.842-11.154 2.763-16.782 2.763-10.744 0-21.387-3.377-30.187-9.721l-46.764-14.121 8.698 24.456c6.856 19.442 1.535 41.034-13.507 55.053-47.378 44.104-73.472 101.51-73.472 161.781 0 130.264 120.85 236.276 269.431 236.276s269.431-106.012 269.431-236.276-120.85-236.276-269.84-236.276zM904.071-15.675c-0.307 1.228-0.716 2.558-1.228 3.684 44.308 49.322 70.914 112.050 70.914 180.405 0 147.66-124.124 269.226-283.757 285.394 42.466-52.904 67.537-117.882 67.537-188.080 0-162.497-134.255-297.162-307.599-318.139 55.36-41.341 126.478-66.104 204.145-66.104 0.307 0 0.512 0 0.819 0 44.206 0 88.105 8.391 129.138 24.763 1.023-0.409 2.047-0.819 3.070-1.228l117.371-39.396c3.684-1.228 7.061-1.842 10.131-1.842 12.177 0 18.521 9.414 14.633 24.252l-25.173 96.291zM863.754-66.226l-59.657 20.056-39.294 0.409c-35.099-14.019-72.142-21.080-110.822-21.080-19.238 0-38.373 1.842-56.997 5.423 127.194 63.853 212.127 187.875 212.127 327.246 0 35.61-5.423 70.607-16.066 104.068 77.77-41.545 128.729-116.654 128.729-201.382 0-53.415-19.954-103.863-57.713-145.818l-9.721-53.211c-0.205 0.614-0.409 1.228-0.614 1.842l10.028-37.555z" />
<glyph unicode="&#xe907;" glyph-name="del" d="M806.45 523.288c-182.963 162.6-463.138 146.125-625.738-36.838s-146.125-463.036 36.736-625.738c182.963-162.6 463.036-146.125 625.738 36.736 162.6 183.065 146.227 463.138-36.736 625.84zM793.761-58.039c-137.939-155.13-376.978-169.66-532.21-31.619s-170.479 375.238-34.587 528.117c135.892 152.879 375.443 177.13 535.28 35.099 155.232-138.041 169.353-376.466 31.517-531.596zM636.994 336.232l-126.069-106.217-125.455 111.538c-11.461 10.131-28.959 9.107-39.089-2.251-10.131-11.461-24.354-37.657-12.893-47.89l121.873-108.366-114.812-96.803c-11.665-9.824-13.2-27.322-3.275-38.987 9.824-11.665 33.768-29.471 45.536-19.647l126.99 107.035 121.873-108.366c11.461-10.131 35.815 6.958 46.048 18.419 10.131 11.461 9.107 28.959-2.251 39.089l-109.901 97.724 122.078 103.249c11.665 9.824-1.74 36.429-11.665 48.197-9.824 11.665-27.322 13.098-38.987 3.275z" />
<glyph unicode="&#xe908;" glyph-name="edit-fill" d="M157.79-5.75l470.301 470.711 156.767-156.869-470.301-470.711-156.767 156.869zM784.859 621.83c21.694 21.694 56.69 21.694 78.384 0l78.384-78.486c21.694-21.694 21.694-56.792 0-78.486l-117.575-117.678-156.767 156.972 117.575 117.678zM66.104-254.101l52.187 209.159 156.767-156.972-208.955-52.187z" />
<glyph unicode="&#xe909;" glyph-name="filter" d="M958.714 564.629c-3.888 9.005-12.996 14.94-23.024 14.94h-847.484c-10.131 0-19.135-5.935-23.024-14.94-3.888-9.107-1.74-19.442 5.423-26.401l316.706-307.804v-401.741c0-8.391 4.502-16.168 11.87-20.568 3.991-2.354 8.493-3.581 13.098-3.581 3.786 0 7.675 0.819 11.154 2.558l199.438 96.905c8.493 4.093 13.814 12.484 13.814 21.694v304.734l316.706 307.804c7.061 6.856 9.21 17.293 5.321 26.401zM583.169 285.477c-14.838-14.428-23.229-34.28-23.229-55.053v-271.784l-95.779-46.559v318.344c0 20.773-8.391 40.624-23.229 55.053l-223.792 217.345h589.616l-223.587-217.345z" />
<glyph unicode="&#xe90a;" glyph-name="label" d="M943.365 203.614l-443.082-443.082c-10.949-10.949-25.275-16.373-39.601-16.373s-28.652 5.423-39.601 16.373l-340.549 340.753c-10.54 10.54-16.373 24.763-16.373 39.601s5.935 29.061 16.373 39.601l443.082 443.082c10.54 10.54 24.763 16.373 39.601 16.373h340.651c14.838 0 29.061-5.935 39.601-16.373 10.54-10.54 16.373-24.763 16.373-39.601v-340.651c0-14.94-5.935-29.164-16.475-39.703zM159.632 140.785l301.050-301.152 60.067 60.067-300.948 301.255-60.169-60.169zM875.829 555.931h-301.050l-295.627-295.627 301.050-301.152 295.627 295.627v301.152zM707.908 443.984c30.903 0 55.974-25.070 55.974-55.974s-25.070-55.974-55.974-55.974c-30.903 0-55.974 25.070-55.974 55.974s25.070 55.974 55.974 55.974z" />
<glyph unicode="&#xe90b;" glyph-name="menudot" d="M511.949 639.533c-247.225 0-447.584-200.359-447.584-447.584s200.359-447.584 447.584-447.584c247.225 0 447.584 200.359 447.584 447.584s-200.359 447.584-447.584 447.584zM511.949-216.648c-225.634 0-408.597 182.963-408.597 408.597 0 225.736 182.963 408.7 408.597 408.7 225.736 0 408.7-182.963 408.7-408.7 0-225.634-182.963-408.597-408.7-408.597zM346.586 381.359c-22.717 0-41.136-18.521-41.136-41.341s18.419-41.341 41.136-41.341c22.717 0 41.136 18.521 41.136 41.341s-18.419 41.341-41.136 41.341zM346.586 85.22c-22.717 0-41.136-18.521-41.136-41.341s18.419-41.341 41.136-41.341c22.717 0 41.136 18.521 41.136 41.341 0 22.922-18.419 41.341-41.136 41.341zM346.586 233.289c-22.717 0-41.136-18.521-41.136-41.341s18.419-41.341 41.136-41.341c22.717 0 41.136 18.521 41.136 41.341s-18.419 41.341-41.136 41.341zM715.173 360.688h-241.802c-11.358 0-20.568-9.21-20.568-20.67 0-11.358 9.21-20.67 20.568-20.67h241.904c11.358 0 20.568 9.21 20.568 20.67-0.102 11.461-9.312 20.67-20.67 20.67zM715.173 212.619h-241.802c-11.358 0-20.568-9.21-20.568-20.67 0-11.358 9.21-20.67 20.568-20.67h241.904c11.358 0 20.568 9.21 20.568 20.67-0.102 11.461-9.312 20.67-20.67 20.67zM715.173 64.652h-241.802c-11.358 0-20.568-9.21-20.568-20.67s9.21-20.67 20.568-20.67h241.904c11.358 0 20.568 9.21 20.568 20.67-0.102 11.358-9.312 20.67-20.67 20.67z" />
<glyph unicode="&#xe90c;" glyph-name="person" d="M719.675 147.231c32.745 51.471 52.392 115.324 52.392 184.703 0 170.070-116.45 307.906-260.016 307.906-143.669 0-260.016-137.836-260.016-307.906 0-69.379 19.647-133.232 52.29-184.703-134.459-61.806-225.736-181.326-225.736-319.060v-28.038c0-30.903 25.889-55.974 57.816-55.974h751.193c31.926 0 57.816 25.070 57.816 55.974v28.038c-0.102 137.734-91.379 257.254-225.736 319.060zM511.949 555.931c93.937 0 173.344-102.533 173.344-223.894s-79.407-223.894-173.344-223.894c-93.937 0-173.344 102.533-173.344 223.894 0 121.259 79.407 223.894 173.344 223.894zM165.26-171.829c0 111.129 80.635 207.113 197.084 252.239 42.364-35.406 93.937-56.383 149.706-56.383s107.342 20.977 149.706 56.383c116.45-45.127 197.084-141.213 197.084-252.239h-693.582z" />
<glyph unicode="&#xe90d;" glyph-name="position" d="M511.949-133.66l31.926 45.945c23.638 34.075 230.75 336.456 230.75 467.231 0 143.669-117.78 260.528-262.677 260.528s-262.677-116.859-262.677-260.528c0-130.776 207.215-433.156 230.853-467.231l31.824-45.945zM511.949 563.196c102.124 0 185.214-82.374 185.214-183.679 0-70.914-103.249-251.625-185.214-376.364-81.965 124.738-185.214 305.348-185.214 376.364 0 101.305 83.091 183.679 185.214 183.679zM734.718 55.443l-37.145 10.949-22.103-73.574 37.145-10.949c77.258-22.819 105.398-52.494 105.501-66.82 0.102-31.722-107.752-93.63-305.859-94.142-86.672-0.512-169.149 12.382-230.034 35.406-52.392 19.852-76.337 43.49-76.337 57.099 0 14.224 27.424 43.694 103.147 66.82l37.043 11.358-22.819 73.369-37.043-11.358c-101.919-31.21-157.893-81.044-157.79-140.395 0.102-30.187 16.577-87.081 126.171-128.627 68.867-26.094 159.428-40.42 255.207-40.42 0.921 0 1.74 0 2.661 0 190.638 0.512 383.322 59.453 383.015 171.195-0.102 59.657-57.202 109.491-160.758 140.088zM589.104 387.498c0 42.159-34.587 76.542-77.156 76.542s-77.156-34.28-77.156-76.542c0-42.159 34.587-76.542 77.156-76.542 42.569 0.102 77.156 34.382 77.156 76.542z" />
<glyph unicode="&#xe90e;" glyph-name="qrcodeline" d="M749.658 555.522v0h125.864v-125.864c0 0 0 0 0 0 0-23.126 18.828-41.955 41.955-41.955s41.955 18.828 41.955 41.955v167.819c0 23.126-18.828 41.955-41.955 41.955h-167.819c-23.126 0-41.955-18.828-41.955-41.955s18.828-41.955 41.955-41.955zM106.524 387.703c23.126 0 41.955 18.828 41.955 41.955v125.864h125.864c23.126 0 41.955 18.828 41.955 41.955s-18.828 41.955-41.955 41.955c0 0 0 0 0 0h-167.819c-23.126 0-41.955-18.828-41.955-41.955v-167.819c0 0 0 0 0 0 0-23.126 18.726-41.955 41.955-41.955zM917.476-3.805c-23.126 0-41.955-18.828-41.955-41.955 0 0 0 0 0 0v-125.864h-125.864c-23.126 0-41.955-18.828-41.955-41.955s18.828-41.955 41.955-41.955h167.819c23.126 0 41.955 18.828 41.955 41.955v167.819c0 23.229-18.828 41.955-41.955 41.955zM274.24-171.522h-125.864v125.864c0 23.126-18.828 41.955-41.955 41.955s-41.955-18.828-41.955-41.955v0-167.819c0-23.126 18.828-41.955 41.955-41.955h167.819c23.126 0 41.955 18.828 41.955 41.955s-18.726 41.955-41.955 41.955zM106.524 164.013h810.952c23.126 0 41.955 18.828 41.955 41.955s-18.828 41.955-41.955 41.955h-810.952c-23.126 0-41.955-18.828-41.955-41.955s18.726-41.955 41.955-41.955z" />
<glyph unicode="&#xe90f;" glyph-name="rdoadd" d="M511.949 639.738c-247.328 0-447.789-200.461-447.789-447.789s200.461-447.789 447.789-447.789c247.328 0 447.789 200.461 447.789 447.789s-200.461 447.789-447.789 447.789zM511.949-216.853c-225.736 0-408.802 183.065-408.802 408.802 0 225.839 183.065 408.904 408.802 408.904s408.802-183.065 408.802-408.802c0-225.839-182.963-408.904-408.802-408.904zM691.33 206.889h-155.437v155.437c0 10.744-8.698 19.442-19.442 19.442s-19.442-8.698-19.442-19.442v-155.437h-155.334c-10.744 0-19.442-8.698-19.442-19.442s8.698-19.442 19.442-19.442h155.437v-155.437c0-10.744 8.698-19.442 19.442-19.442s19.442 8.698 19.442 19.442v155.437h155.437c10.744 0 19.442 8.698 19.442 19.442-0.102 10.744-8.8 19.442-19.545 19.442z" />
<glyph unicode="&#xe910;" glyph-name="rdocancel" d="M511.949 640.147c-247.532 0-448.096-200.666-448.096-448.096 0-247.532 200.666-448.096 448.096-448.096 247.532 0 448.096 200.666 448.096 448.096s-200.564 448.096-448.096 448.096zM511.949-189.122c-210.080 0-380.866 169.046-380.866 375.852s164.749 386.085 380.866 386.085c210.080 0 380.866-170.684 380.866-380.559 0.102-209.773-170.786-381.378-380.866-381.378zM708.010 219.987h-392.122c-15.452 0-28.038-12.586-28.038-28.038s6.958-44.82 22.41-44.82h403.276c15.452 0 22.41 29.368 22.41 44.82 0.102 15.554-12.484 28.038-27.936 28.038z" />
<glyph unicode="&#xe911;" glyph-name="rdosent" d="M511.949 639.328c-243.849 0-441.547-200.257-441.547-447.38 0-247.021 197.698-447.38 441.547-447.38s441.547 200.257 441.547 447.38c0 247.123-197.698 447.38-441.547 447.38zM511.949-216.444c-222.36 0-402.662 182.861-402.662 408.495 0 225.532 180.303 408.495 402.662 408.495s402.662-182.861 402.662-408.495c0-225.634-180.2-408.495-402.662-408.495zM682.837 382.996c-4.809 0-9.414-1.228-13.405-3.377l-398.774-213.559c-9.005-4.809-15.042-14.224-15.042-25.070 0-15.759 12.791-28.447 28.447-28.447h156.665v-156.665c0-15.759 12.791-28.447 28.447-28.447 10.847 0 20.363 6.14 25.173 15.042l213.662 398.774c2.149 3.991 3.377 8.596 3.377 13.405 0 15.554-12.791 28.345-28.55 28.345zM483.502 12.465v114.198c0 15.759-12.791 28.447-28.447 28.447h-114.198l307.19 164.544-164.544-307.19z" />
<glyph unicode="&#xe912;" glyph-name="rdotobottom" d="M648.864 210.061l-102.431-102.84v264.11c0 13.814-11.154 24.968-24.866 24.968s-24.866-11.154-24.866-24.968v-264.11l-102.533 102.84c-9.721 9.721-25.48 9.721-35.201 0s-9.721-25.582 0-35.303l140.599-141.111c5.935-5.935 14.121-7.879 21.796-6.447 7.675-1.33 15.861 0.512 21.796 6.447l140.599 141.111c9.721 9.721 9.721 25.582 0 35.303-9.414 9.721-25.173 9.721-34.894 0zM511.949 639.328c-243.849 0-441.547-200.257-441.547-447.38 0-247.021 197.698-447.38 441.547-447.38s441.547 200.257 441.547 447.38c0 247.123-197.698 447.38-441.547 447.38zM511.949-216.444c-222.36 0-402.662 182.861-402.662 408.495 0 225.532 180.303 408.495 402.662 408.495s402.662-182.861 402.662-408.495c0-225.634-180.2-408.495-402.662-408.495z" />
<glyph unicode="&#xe913;" glyph-name="time" d="M511.949 638.51c-246.202 0-446.459-200.359-446.459-446.459 0-246.202 200.257-446.459 446.459-446.459s446.459 200.257 446.459 446.459c0.102 246.1-200.257 446.459-446.459 446.459zM511.949-177.968c-204.043 0-369.917 165.977-369.917 369.917 0 204.043 165.977 370.019 369.917 370.019s369.917-165.977 369.917-369.917c0.102-204.043-165.874-370.019-369.917-370.019zM707.703 230.22h-157.483v199.233c0 21.080-17.089 38.271-38.271 38.271s-38.271-17.191-38.271-38.271v-237.402c0-21.182 17.089-38.271 38.271-38.271h195.754c21.182 0 38.271 17.191 38.271 38.271s-17.089 38.168-38.271 38.168z" />
<glyph unicode="&#xe914;" glyph-name="trash-fill" d="M141.213 518.376c0 25.582 20.773 46.252 46.355 46.252h231.671v46.252c0 25.582 20.773 46.252 46.355 46.252h92.71c25.582 0 46.355-20.773 46.355-46.252v-46.252h231.671c25.582 0 46.355-20.773 46.355-46.252v-46.252h-741.471v46.252zM836.33 379.517v-570.89c0-25.582-20.773-46.252-46.355-46.252h-556.052c-25.582 0-46.355 20.773-46.355 46.252v617.142h648.762v-46.252zM372.987 286.91c0 25.582-20.773 46.252-46.355 46.252s-46.355-20.773-46.355-46.252v-385.676c0-25.582 20.773-46.252 46.355-46.252s46.355 20.773 46.355 46.252v385.676zM558.304 286.91c0 25.582-20.773 46.252-46.355 46.252s-46.355-20.773-46.355-46.252v-385.676c0-25.582 20.773-46.252 46.355-46.252s46.355 20.773 46.355 46.252v385.676zM743.62 286.91c0 25.582-20.773 46.252-46.355 46.252s-46.355-20.773-46.355-46.252v-385.676c0-25.582 20.773-46.252 46.355-46.252s46.355 20.773 46.355 46.252v385.676z" />
<glyph unicode="&#xe915;" glyph-name="back" d="M352.419 191.949l364.903 390.587c9.414 10.131 9.414 26.503 0 36.634s-24.763 10.131-34.28 0l-376.568-403.071c-6.14-6.549-8.289-15.656-6.447-24.047-1.74-8.391 0.409-17.498 6.447-24.047l376.568-403.071c9.414-10.131 24.763-10.131 34.28 0 9.414 10.131 9.414 26.503 0 36.634l-364.903 390.383z" />
<glyph unicode="&#xe916;" glyph-name="search" d="M955.747-251.747c-7.777-7.777-20.261-7.777-28.038 0l-175.288 175.186c9.721 8.903 19.135 18.214 28.038 28.038l175.288-175.186c7.675-7.777 7.675-20.261 0-28.038zM458.84-151.261c-218.983 0-396.42 177.54-396.42 396.42s177.437 396.42 396.42 396.42c218.88 0 396.42-177.437 396.42-396.42s-177.54-396.42-396.42-396.42zM458.84 601.876c-197.084 0-356.717-159.735-356.717-356.717 0-197.084 159.735-356.717 356.717-356.717 197.084 0 356.717 159.735 356.717 356.717s-159.735 356.717-356.717 356.717z" />
<glyph unicode="&#xe917;" glyph-name="rdocancel-fill" d="M511.949 639.84c-247.328 0-447.891-200.461-447.891-447.891 0-247.328 200.564-447.891 447.891-447.891s447.891 200.564 447.891 447.891c0 247.43-200.564 447.891-447.891 447.891zM700.233 133.622h-350.577c-35.815 0-64.876 29.061-64.876 64.876s29.061 64.876 64.876 64.876h350.475c35.815 0 64.876-29.061 64.876-64.876s-28.959-64.876-64.774-64.876z" />
<glyph unicode="&#xe918;" glyph-name="cbo" d="M511.949 639.533c-247.225 0-447.584-200.359-447.584-447.584s200.359-447.584 447.584-447.584c247.225 0 447.584 200.359 447.584 447.584s-200.359 447.584-447.584 447.584zM511.949-216.648c-225.634 0-408.597 182.963-408.597 408.597s182.963 408.7 408.597 408.7c225.736 0 408.7-182.963 408.7-408.7s-182.963-408.597-408.7-408.597z" />
<glyph unicode="&#xe919;" glyph-name="cbo-fill" d="M511.949-255.84c-247.328 0-447.891 200.461-447.891 447.891s200.564 447.789 447.891 447.789 447.891-200.461 447.891-447.891-200.564-447.789-447.891-447.789zM717.527 329.887c-7.265 7.163-16.782 10.744-26.298 11.051-10.642 0.409-21.387-3.070-29.471-11.051l-209.569-193.401-76.439 74.904c-8.084 7.982-18.828 11.563-29.471 11.051-9.517-0.409-19.033-3.888-26.298-11.051s-10.847-16.475-11.256-25.889c-0.409-10.437 3.172-20.977 11.256-29.061l104.375-102.431c7.675-7.572 17.805-11.358 27.936-11.358s20.159 3.786 27.936 11.358l237.504 220.825c8.084 7.982 11.665 18.521 11.256 29.061-0.614 9.517-4.093 18.828-11.461 25.991z" />
<glyph unicode="&#xe91a;" glyph-name="close-fill" d="M880.74-255.84h-737.583c-43.694 0-78.998 35.406-78.998 78.998v737.685c0 43.694 35.406 78.998 78.998 78.998h737.685c43.694 0 78.998-35.406 78.998-78.998v-737.685c0-43.592-35.406-78.998-79.1-78.998zM757.025 343.497c13.61 13.61 19.545 31.619 18.828 49.425-0.614 15.963-6.651 31.824-18.828 44.104-12.177 12.177-28.038 18.214-44.104 18.828-17.805 0.716-35.815-5.219-49.425-18.828l-151.548-151.548-151.548 151.548c-13.507 13.61-31.517 19.545-49.322 18.828-15.963-0.614-31.824-6.651-44.104-18.828-12.177-12.177-18.214-28.038-18.828-44.104-0.716-17.805 5.219-35.815 18.828-49.425l151.548-151.446-151.548-151.548c-13.61-13.61-19.545-31.619-18.828-49.425 0.614-16.066 6.651-31.824 18.828-44.104 12.177-12.177 28.038-18.214 44.104-18.828 17.805-0.716 35.815 5.219 49.425 18.828l151.548 151.548 151.446-151.548c13.61-13.61 31.619-19.545 49.425-18.828 15.963 0.614 31.824 6.651 44.104 18.828 12.177 12.177 18.214 28.038 18.828 44.104 0.716 17.805-5.219 35.815-18.828 49.425l-151.548 151.548 151.548 151.446z" />
<glyph unicode="&#xe91b;" glyph-name="rdohook" d="M511.949 656.417c-247.225 0-447.584-200.359-447.584-447.584s200.359-447.584 447.584-447.584c247.225 0 447.584 200.359 447.584 447.584s-200.359 447.584-447.584 447.584zM511.949-199.764c-225.634 0-408.597 182.861-408.597 408.597s182.963 408.7 408.597 408.7c225.736 0 408.7-182.963 408.7-408.7s-182.963-408.597-408.7-408.597zM667.897 341.144l-199.95-222.053-112.459 103.966c-7.675 7.777-19.954 7.777-27.629 0s-7.675-20.363 0-28.14l125.25-118.292c4.093-4.093 9.414-5.935 14.735-5.628 5.321-0.307 10.744 1.535 14.735 5.628l212.843 236.379c7.675 7.777 7.675 20.363 0 28.14-7.47 7.777-19.852 7.777-27.526 0z" />
<glyph unicode="&#xe91c;" glyph-name="add-fill" d="M511.949 639.84c-247.328 0-447.891-200.461-447.891-447.891 0-247.328 200.461-447.891 447.891-447.891s447.891 200.564 447.891 447.891c0 247.43-200.564 447.891-447.891 447.891zM651.934 135.975h-84.012v-84.012c0-30.903-25.070-55.974-55.974-55.974s-55.974 25.070-55.974 55.974v84.012h-84.012c-30.903 0-55.974 25.070-55.974 55.974s25.070 55.974 55.974 55.974h84.012v84.012c0 30.903 25.070 55.974 55.974 55.974s55.974-25.070 55.974-55.974v-84.012h84.012c30.903 0 55.974-25.070 55.974-55.974s-25.070-55.974-55.974-55.974z" />
<glyph unicode="&#xe91d;" glyph-name="clear-fill" d="M806.45 523.288c-182.963 162.6-463.138 146.125-625.738-36.838s-146.125-463.036 36.736-625.738c182.963-162.6 463.036-146.125 625.738 36.736 162.6 183.065 146.227 463.138-36.736 625.84zM714.661 298.78l-139.371-117.882 125.352-111.538c13.507-11.972 14.633-32.847 2.661-46.355-9.312-10.437-28.959-25.070-43.49-25.070-4.298 0-7.982 1.33-10.847 3.786l-139.371 123.92-145.204-122.385c-2.763-2.354-6.242-3.479-10.335-3.479-14.735 0-34.28 15.349-43.387 26.196-5.628 6.651-8.391 15.145-7.675 23.843 0.716 8.8 4.809 16.68 11.563 22.41l130.98 110.515-139.167 123.715c-6.14 5.526-6.856 15.247-2.149 28.14 4.298 11.665 11.768 22.512 16.884 28.345 6.242 6.958 15.145 10.949 24.456 10.949 8.084 0 15.861-2.968 21.898-8.289l143.464-127.603 144.181 121.464c5.935 5.014 13.405 7.777 21.182 7.777 9.721 0 18.828-4.195 25.070-11.665 5.014-5.935 12.177-16.987 16.168-28.857 4.4-12.996 3.377-22.717-2.865-27.936z" />
<glyph unicode="&#xe91e;" glyph-name="info" d="M511.949 638.714c-246.407 0-446.663-200.257-446.663-446.663s200.257-446.663 446.663-446.663 446.663 200.257 446.663 446.663-200.257 446.663-446.663 446.663zM579.69 22.595l-64.672-98.542c0 0-70.811-67.741-138.655 0 0 0-33.871 30.801 33.871 132.515l36.941 104.784c0 0-104.784-33.871-138.655-33.871l120.236 147.762c0 0 92.403 73.983 160.144-15.452 0 0 24.661-55.462-46.252-117.064 0 0-27.731-12.279-61.602-150.934 0.102 0 30.903-3.070 98.645 30.801zM579.69 364.577c-36.941 0-67.741 30.801-67.741 67.741s30.801 67.741 67.741 67.741c40.010 0 67.741-30.801 67.741-67.741s-30.699-67.741-67.741-67.741z" />
<glyph unicode="&#xe91f;" glyph-name="file" d="M357.228 275.756h309.543v-74.802h-309.543v74.802zM835 563.912h-142.543v49.834c0 13.814-11.563 24.968-25.787 24.968h-309.441c-14.224 0-25.787-11.154-25.787-24.968v-49.834h-142.543c-28.447 0-51.573-22.308-51.573-49.834v-718.857c0-27.526 23.126-49.834 51.573-49.834h646.101c28.447 0 51.573 22.308 51.573 49.834v718.857c0 27.526-23.024 49.834-51.573 49.834zM408.802 563.912h206.294v-74.802h-206.294v74.802zM809.213-179.912h-594.528v669.023h116.757v-49.834c0-13.814 11.563-24.968 25.787-24.968h309.543c14.224 0 25.787 11.154 25.787 24.968v49.834h116.757v-669.023zM357.228 151.12h309.543v-74.802h-309.543v74.802z" />
<glyph unicode="&#xe920;" glyph-name="manager" d="M806.552 611.597h-589.207c-84.012 0-152.060-68.048-152.060-152.060v-532.21c0-84.012 68.048-152.060 152.060-152.060h589.309c84.012 0 152.060 68.048 152.060 152.060v532.21c-0.102 83.909-68.151 152.060-152.162 152.060zM901.615-53.742c0-63.034-51.062-114.096-114.096-114.096h-551.243c-63.034 0-114.096 51.062-114.096 114.096v494.246c0 63.034 51.062 114.096 114.096 114.096h551.243c63.034 0 114.096-51.062 114.096-114.096v-494.246zM560.657 144.775c27.424 18.010 46.048 51.471 56.383 89.128 1.228-1.126 2.661-1.944 4.195-2.354 10.437-2.763 23.229 12.484 28.652 34.075 5.321 21.489 1.126 41.238-9.312 43.899-3.275 0.819-6.856-0.102-10.233-2.354 5.833 28.14 16.475 84.421 11.972 101.714-6.14 23.331-47.378 50.448-62.83 51.573-15.452 1.023-33.666-9.824-33.666-9.824s-17.396 22.103-33.052 26.401c-15.554 4.298-42.569-0.921-55.871-6.344-34.178-14.019-37.043 0-37.043 0-5.526-13.814 12.382-20.056 12.382-20.056s-40.317-16.373-49.527-33.257c-7.265-13.2 7.368-82.886 14.121-112.766-4.4 4.195-9.107 6.14-13.507 5.014-10.437-2.763-14.633-22.41-9.312-43.899s18.112-36.736 28.652-34.075c2.558 0.614 4.707 2.354 6.447 4.707 10.028-38.271 28.652-72.448 56.281-90.97-19.749-110.31-171.912-85.444-171.912-189.921 0-38.68 159.325-47.173 218.573-47.173s218.573 8.493 218.573 47.173c-0.102 104.273-149.911 79.611-169.967 189.307z" />
<glyph unicode="&#xe921;" glyph-name="rdorefuse" d="M511.949 638.714c-246.714 0-446.663-199.95-446.663-446.663s199.95-446.663 446.663-446.663 446.663 199.95 446.663 446.663c0 246.714-199.95 446.663-446.663 446.663zM511.949-173.466c-201.894 0-365.517 163.623-365.517 365.517s163.623 365.517 365.517 365.517c201.894 0 365.517-163.623 365.517-365.517s-163.623-365.517-365.517-365.517zM655.516 335.618c-15.861 15.861-41.545 15.861-57.406 0l-86.16-86.16-86.16 86.16c-15.861 15.861-41.545 15.861-57.406 0s-15.861-41.545 0-57.406l86.16-86.16-86.16-86.16c-15.861-15.861-15.861-41.545 0-57.406s41.545-15.861 57.406 0l86.16 86.16 86.16-86.16c15.861-15.861 41.545-15.861 57.406 0s15.861 41.545 0 57.406l-86.16 86.16 86.16 86.16c15.861 15.759 15.861 41.545 0 57.406z" />
<glyph unicode="&#xe922;" glyph-name="rdook" d="M627.887 293.049l-153.39-153.493-62.318 62.318c-15.861 15.861-41.545 15.861-57.406 0s-15.861-41.545 0-57.406l91.072-91.072c15.861-15.861 41.545-15.861 57.406 0l182.144 182.144c15.861 15.861 15.861 41.545 0 57.406-15.963 15.963-41.648 15.963-57.509 0.102zM511.949 638.714c-246.714 0-446.663-199.95-446.663-446.663s199.95-446.663 446.663-446.663c246.714 0 446.663 199.95 446.663 446.663s-199.95 446.663-446.663 446.663zM511.949-173.466c-201.894 0-365.517 163.623-365.517 365.517s163.623 365.517 365.517 365.517c201.894 0 365.517-163.623 365.517-365.517s-163.623-365.517-365.517-365.517z" />
<glyph unicode="&#xe923;" glyph-name="seal" d="M797.343 118.477h-157.995c4.195 39.192 8.186 73.779 12.177 104.682 16.168 131.492 33.564 220.62 33.666 221.643 3.786 19.442 3.786 39.908 0 59.248-8.493 43.183-34.485 80.737-73.165 105.603-29.778 19.135-64.262 29.061-99.668 29.061-10.642 0-21.387-0.921-32.131-2.763-46.252-7.879-86.467-32.131-113.175-68.253s-36.736-79.816-28.243-122.999c0.205-0.921 17.6-90.254 33.768-221.746 3.888-30.392 7.879-64.876 12.075-104.58h-158.097c-84.523 0-153.288-64.16-153.288-142.953v-91.584c0-15.452 13.507-28.038 30.085-28.038h16.987v-0.921h29.061v-81.556c0-15.452 13.507-28.038 30.085-28.038h664.93c16.577 0 30.085 12.586 30.085 28.038v81.556h44.82v0.921h1.228c16.577 0 30.085 12.586 30.085 28.038v91.584c0 78.895-68.765 143.055-153.288 143.055zM829.064-212.555h-634.231v67.434h634.334v-67.434zM905.197-98.050h-784.859v-3.991h-1.637v77.565c0 55.564 48.401 100.793 107.956 100.793h158.097c12.791 0 25.070 5.014 33.666 13.814s12.791 20.568 11.563 32.438c-4.298 40.42-8.289 74.904-12.177 105.194-16.373 133.129-34.178 224.099-34.28 224.508-6.344 32.131 1.126 64.672 21.080 91.482 19.852 26.81 49.732 44.82 84.012 50.653 7.982 1.33 15.963 2.047 23.945 2.047 26.298 0 51.88-7.47 73.779-21.591 28.754-18.521 48.094-46.457 54.439-78.588 2.865-14.428 2.865-29.675 0-44.206-0.716-3.786-18.112-93.528-34.075-224.099-3.991-31.108-7.982-65.592-12.279-105.501-1.228-11.87 2.968-23.638 11.563-32.438s20.773-13.814 33.666-13.814h157.995c28.754 0 55.769-10.437 76.235-29.471s31.722-44.411 31.722-71.323v-73.472z" />
<glyph unicode="&#xe924;" glyph-name="fav-fill" d="M959.117 296.999l-308.142 47.076-138.566 294.837-138.566-294.837-308.244-47.076 222.996-228.317-52.807-323.288 276.621 152.689 276.519-152.689-52.704 323.288z" />
<glyph unicode="&#xe925;" glyph-name="rdoadd-fill" d="M512.307 638.606c-246.738 0-446.81-200.072-446.81-446.708 0-246.738 200.072-446.81 446.81-446.81s446.708 199.97 446.708 446.708c0 246.738-199.97 446.81-446.708 446.81zM679.835 163.959h-139.59v-139.59c0-15.453-12.485-27.938-27.938-27.938s-27.938 12.485-27.938 27.938v139.59h-139.59c-15.453 0-27.938 12.485-27.938 27.938s12.485 27.938 27.938 27.938h139.59v139.59c0 15.453 12.485 27.938 27.938 27.938s27.938-12.485 27.938-27.938v-139.59h139.59c15.453 0 27.938-12.485 27.938-27.938s-12.485-27.938-27.938-27.938z" />
<glyph unicode="&#xe926;" glyph-name="tel" d="M943.877-123.939c24.661 35.201 15.656 73.983-6.754 89.64-13.61 9.619-162.907 108.877-181.121 120.031-7.982 4.912-17.703 7.265-28.243 7.265-13.61 0-28.754-3.991-43.49-11.768-14.326-7.572-57.918-32.336-79.1-44.513-18.726 13.2-62.83 46.969-132.208 116.45-68.969 68.969-103.045 113.38-116.245 132.311 12.177 21.284 36.838 64.774 44.411 79.1 14.224 27.015 15.861 53.927 4.298 72.142-10.949 17.293-109.798 167.205-120.031 181.326-9.619 13.303-26.81 20.466-45.536 20.466-14.735 0-30.392-4.502-44.001-13.917-1.228-0.921-132.311-95.984-130.571-150.116 4.809-151.958 152.367-330.521 275.366-453.519s301.459-270.761 453.929-275.57h1.228c53.313-0.102 147.148 129.445 148.069 130.673zM793.454-198.843c-104.477 4.912-251.114 96.803-413.407 259.198s-254.184 308.929-258.993 413.202c7.061 19.749 58.123 70.197 106.728 105.296 3.581 2.456 7.982 3.888 12.177 3.888 0.921 0 1.637-0.102 2.251-0.205 15.656-22.819 99.77-150.218 115.017-174.061 0.102-2.456-0.819-8.903-5.628-18.010-5.116-9.721-20.875-37.964-43.49-77.463l-17.498-30.699 20.363-28.959c15.145-21.489 51.164-68.355 122.487-139.576 71.528-71.63 118.189-107.547 139.576-122.589l28.959-20.363 30.699 17.6c29.778 16.987 65.695 37.452 77.463 43.592 9.414 4.912 15.759 5.321 17.498 5.321 0.307 0 0.512 0 0.716 0 21.284-13.405 151.446-99.77 174.368-115.529 0.409-2.251 0-7.061-4.195-13.098-35.303-49.118-85.444-100.282-105.091-107.547z" />
<glyph unicode="&#xe927;" glyph-name="rdoinfo" d="M923.514 365.907c-22.512 53.211-54.746 100.998-95.677 142.032s-88.821 73.267-142.032 95.677c-55.053 23.331-113.584 35.099-173.856 35.099s-118.803-11.768-173.856-35.099c-53.211-22.512-100.998-54.746-142.032-95.677s-73.267-88.821-95.677-142.032c-23.331-55.053-35.099-113.584-35.099-173.856s11.768-118.803 35.099-173.856c22.512-53.211 54.746-100.998 95.677-142.032 41.034-41.034 88.821-73.267 142.032-95.677 55.053-23.331 113.584-35.099 173.856-35.099s118.803 11.768 173.856 35.099c53.211 22.512 100.998 54.746 142.032 95.677 41.034 41.034 73.267 88.821 95.677 142.032 23.331 55.053 35.099 113.584 35.099 173.856s-11.768 118.803-35.099 173.856zM900.694 192.051c0-214.276-174.368-388.643-388.745-388.643-214.276 0-388.643 174.368-388.643 388.643 0 214.378 174.368 388.745 388.643 388.745 214.378 0 388.745-174.368 388.745-388.745zM553.187 3.767c0.102 0.205 0.307 0.409 0.409 0.614v0l-0.409-0.614zM531.596 296.938c-22.922 0-61.397-25.582-114.403-75.928-14.735-14.019-30.289-29.675-46.15-46.457l-34.996-37.043 163.725 74.597c-14.428-32.336-96.496-216.322-103.761-241.086-3.991-13.507-0.716-29.471 8.596-42.773 10.744-15.349 27.936-24.661 47.071-25.684 0.819 0 1.535-0.102 2.251-0.102 32.54 0 65.49 37.145 93.528 73.779l14.94 19.545 5.833-5.014c0.921 0.921 1.637 1.944 2.251 3.070l-14.633 8.903 3.479-3.377-2.968 1.535 4.502-3.888-23.536-5.014c-2.968-0.614-6.344-1.228-9.824-1.944-16.27-2.968-33.768-5.014-47.583-5.628 6.242 12.586 30.903 62.113 55.155 112.561 37.759 78.588 57.202 123.408 58.020 133.129v0.819c0 17.703-3.888 32.233-11.665 43.183-10.437 15.247-27.219 22.819-49.834 22.819zM591.253 481.538c-29.573 0-53.62-24.047-53.62-53.62s24.047-53.62 53.62-53.62 53.62 24.047 53.62 53.62-24.047 53.62-53.62 53.62z" />
<glyph unicode="&#xe928;" glyph-name="add" d="M929.653 221.010h-388.643v388.643c0 16.066-12.996 28.959-28.959 28.959h-0.102c-16.066 0-28.959-12.996-28.959-28.959v-388.643h-388.745c-16.066 0-28.959-12.996-28.959-28.959v-0.102c0-16.066 12.996-28.959 28.959-28.959h388.643v-388.643c0-16.066 12.996-28.959 28.959-28.959h0.102c16.066 0 28.959 12.996 28.959 28.959v388.541h388.643c16.066 0 28.959 12.996 28.959 28.959v0.102c0.102 16.066-12.893 29.061-28.857 29.061z" />
<glyph unicode="&#xe929;" glyph-name="fweixin-fill" d="M689.66 601.866c-54.444 23.64-114.517 36.842-177.66 36.842-43.085 0-84.634-6.243-124.034-17.602l293.916-360.948 7.778 341.709zM347.747 607.392c-55.161-21.696-107.046-54.853-151.666-99.473-30.497-30.497-55.468-64.269-75.219-100.189l463.082-47.383-236.197 247.045zM102.134 369.557c-23.743-54.444-36.842-114.415-36.842-177.557 0-43.085 6.243-84.634 17.602-124.034l360.948 293.916-341.709 7.675zM96.608 27.747c21.696-55.161 54.751-106.944 99.473-151.666 30.395-30.497 64.269-55.468 100.087-75.219l47.485 463.082-247.045-236.197zM334.443-217.866c54.444-23.64 114.415-36.944 177.66-36.944 42.982 0 84.634 6.243 123.932 17.602l-293.916 360.948-7.675-341.606zM676.253-223.392c55.161 21.696 107.046 54.853 151.666 99.473 30.497 30.395 55.468 64.269 75.219 100.189l-463.082 47.28 236.197-246.943zM941.106 316.034l-360.846-293.916 341.606-7.675c23.64 54.444 36.944 114.415 36.944 177.557 0 43.085-6.243 84.634-17.705 124.034zM927.392 356.253c-21.696 55.263-54.751 106.944-99.473 151.666-30.395 30.395-64.269 55.468-100.189 75.219l-47.383-462.98 247.045 236.095z" />
<glyph unicode="&#xe92a;" glyph-name="mail" d="M852.378 525.317h-680.756c-58.64 0-106.33-47.69-106.33-106.33v-453.872c0-58.64 47.69-106.33 106.33-106.33h680.756c58.64 0 106.33 47.69 106.33 106.33v453.769c0.102 58.64-47.69 106.432-106.33 106.432zM901.603 482.744l-389.603-299.75-389.603 299.75h779.206zM110.833-53.408c-2.047 6.754-2.968 12.588-2.968 18.421v468.404l272.835-212.25-266.285-286.343-3.582 11.769zM866.603-97.004c-0.921-0.205-3.787-0.921-354.603-0.921-350.714 0-353.58 0.614-354.603 0.921l-12.076 2.763 268.843 286.446 97.733-73.888 93.64 74.4 273.244-286.957-12.178-2.763zM916.237-34.885c0-5.833-0.921-11.769-2.968-18.523l-3.582-11.769-266.285 286.343 272.835 212.25v-468.301z" />
<glyph unicode="&#xe92b;" glyph-name="del-fill" d="M950.521-77.662l-270.993 271.095 271.095 271.095c2.968 2.968 5.015 6.345 6.447 10.029 3.684 9.927 1.535 21.491-6.447 29.474l-128.128 127.923c-7.982 7.982-19.649 10.132-29.474 6.447-3.684-1.33-7.061-3.48-10.029-6.345l-270.993-271.095-271.095 270.993c-2.968 2.968-6.345 5.015-10.029 6.345-9.927 3.787-21.491 1.637-29.474-6.345l-127.923-128.026c-7.982-7.982-10.132-19.649-6.447-29.474 1.433-3.684 3.48-7.061 6.447-10.029l271.095-271.095-271.095-270.993c-2.968-2.968-5.015-6.345-6.447-9.927-3.684-9.927-1.535-21.491 6.447-29.474l128.026-128.026c7.982-7.982 19.649-10.132 29.474-6.447 3.684 1.433 7.061 3.48 10.029 6.447l271.095 271.095 271.095-271.095c2.968-2.968 6.345-5.015 10.029-6.447 9.927-3.684 21.491-1.535 29.474 6.447l128.026 128.026c7.982 7.982 10.132 19.649 6.447 29.474-1.535 3.684-3.684 7.061-6.652 9.927z" />
<glyph unicode="&#xe92c;" glyph-name="list" d="M735.332 394.047h-276.594c-15.452 0-27.936-12.484-27.936-27.936s12.484-27.936 27.936-27.936h276.491c15.452 0 27.936 12.484 27.936 27.936s-12.484 27.936-27.833 27.936zM825.688 638.714h-627.478c-61.295 0-111.64-54.95-111.64-116.245v-666.055c0-61.295 49.629-111.026 110.924-111.026h623.077c61.295 0 116.757 50.346 116.757 111.64v670.046c0 61.295-50.346 111.64-111.64 111.64zM881.559-142.972c0-30.699-30.289-56.178-60.988-56.178h-623.077c-30.596 0-55.462 24.866-55.462 55.462v666.158c0 30.699 25.582 60.476 56.178 60.476h627.478c30.596 0 55.871-25.173 55.871-55.871v-670.046zM331.135 394.047h-21.284c-15.452 0-27.936-12.484-27.936-27.936s12.484-27.936 27.936-27.936h21.284c15.452 0 27.936 12.484 27.936 27.936s-12.484 27.936-27.936 27.936zM331.135 223.875h-21.284c-15.452 0-27.936-12.484-27.936-27.936s12.484-27.936 27.936-27.936h21.284c15.452 0 27.936 12.484 27.936 27.936s-12.484 27.936-27.936 27.936zM735.332 223.875h-276.594c-15.452 0-27.936-12.484-27.936-27.936s12.484-27.936 27.936-27.936h276.491c15.452 0 27.936 12.484 27.936 27.936s-12.484 27.936-27.833 27.936zM331.135 53.703h-21.284c-15.452 0-27.936-12.484-27.936-27.936s12.484-27.936 27.936-27.936h21.284c15.452 0 27.936 12.484 27.936 27.936s-12.484 27.936-27.936 27.936zM735.332 53.703h-276.594c-15.452 0-27.936-12.484-27.936-27.936s12.484-27.936 27.936-27.936h276.491c15.452 0 27.936 12.484 27.936 27.936s-12.484 27.936-27.833 27.936z" />
<glyph unicode="&#xe92d;" glyph-name="man" d="M591.56 115.817c44.82 28.243 75.314 80.635 92.198 139.576 2.047-1.74 4.4-2.968 6.958-3.684 17.089-4.298 38.066 19.545 46.764 53.313s1.842 64.569-15.247 68.867c-5.423 1.33-11.154-0.102-16.782-3.684 9.517 44.001 27.015 132.311 19.545 159.325-10.131 36.429-77.463 79.1-102.738 80.737s-55.053-15.349-55.053-15.349-28.447 34.587-53.927 41.443c-25.48 6.754-69.583-1.433-91.277-9.926-55.871-22.001-60.578 0-60.578 0-9.005-21.591 20.159-31.415 20.159-31.415s-65.695-25.582-80.839-52.085c-11.87-20.773 12.075-129.855 23.126-176.619-7.265 6.549-14.94 9.619-22.001 7.879-17.089-4.298-23.945-35.099-15.247-68.867s29.675-57.611 46.764-53.313c4.093 1.023 7.675 3.684 10.54 7.47 16.475-59.964 46.866-113.482 91.891-142.543-32.54-173.037-281.096-134.050-281.096-297.776 0-60.578 260.426-73.881 357.228-73.881s357.228 13.303 357.228 73.881c0 163.418-244.872 124.738-277.617 296.65z" />
<glyph unicode="&#xe92e;" glyph-name="service-fill" d="M854.544-147.167c-3.275 31.312-6.754 62.625-10.437 93.937-3.172 27.219-25.275 60.067-48.401 71.221-64.467 27.424-126.478 45.843-187.67 55.155-1.228 9.517-2.456 19.135-3.786 28.55 71.528 11.256 151.139 31.824 130.571 39.294-12.996 4.707-24.456 22.819-31.619 48.299 3.581 3.581 6.447 7.879 7.47 13.2l0.102 0.512c15.554 8.391 29.471 25.173 37.657 47.071 1.126-0.921 2.456-1.535 3.684-2.251l16.475-0.307c5.73 2.558 9.926 7.675 11.154 14.019l5.526 30.596c1.74 10.335-5.219 20.159-15.759 21.898-5.014 0.921-9.824-0.205-13.712-2.661-1.535 11.256-4.912 21.694-9.619 30.187 5.628 12.791 10.335 26.094 13.405 39.703 11.665 42.057 5.73 85.751-14.121 124.738 1.74 4.809 1.433 10.335-1.74 15.452-40.42 69.379-129.957 117.575-228.192 117.268-98.235 0.307-187.773-47.89-228.192-116.961-2.968-5.219-3.377-10.642-1.74-15.452-19.749-38.987-25.684-82.681-14.019-124.738 3.172-13.712 7.777-26.912 13.405-39.703-4.809-8.596-7.982-19.033-9.619-30.289-3.991 2.354-8.8 3.581-13.814 2.661-10.54-1.74-17.6-11.563-15.656-21.898l5.526-30.596c1.944-10.335 11.972-17.191 22.615-15.349 3.275 0.614 6.242 1.944 8.698 3.991 8.391-21.796 22.103-38.68 37.759-47.071l0.102-0.512c1.842-10.335 9.721-18.112 19.545-20.568-9.107-32.029-23.229-55.871-36.838-62.42-15.247-7.265 46.252-14.428 116.45-18.010-1.228-9.414-2.456-19.033-3.581-28.447-61.397-9.721-123.51-28.038-187.977-55.462-23.126-11.154-45.127-43.899-48.401-71.221-3.684-31.312-7.265-62.625-10.54-93.937-2.865-27.424 13.303-56.792 36.429-64.262 98.338-28.857 202.303-43.183 306.166-43.183 103.966 0 207.931 14.428 306.269 43.183 23.229 7.572 39.396 36.941 36.429 64.365zM340.446 485.12c-15.554-25.582-26.503-58.941-26.401-96.291 0 0-0.102 0-0.205 0-2.763-0.512-5.423-1.535-7.777-2.763-0.102 0.716-0.409 1.433-0.512 2.149-8.596 36.327-2.763 73.165 14.428 105.91 5.219 2.047 9.721 5.423 12.689 10.028 34.075 55.257 105.398 92.607 182.963 92.403 77.667 0.205 148.99-37.145 183.065-92.403 2.968-4.605 7.572-8.084 12.689-10.131 17.089-32.745 22.922-69.583 14.428-105.808-0.102-0.716-0.307-1.433-0.512-2.149-2.354 1.228-5.014 2.251-7.879 2.763-0.307 0-0.614 0-0.819 0 2.763 70.197-30.801 119.827-50.346 135.79-34.894 31.415-90.561 47.071-146.227 47.071-53.108 0-106.217-14.224-141.418-42.671-0.921-0.409-1.944-0.819-2.968-1.433-16.066-9.824-27.526-24.559-35.201-42.466zM571.913-23.964c-13.303-12.791-35.508-20.159-59.862-20.159s-46.559 7.368-59.146 19.545c-12.791 11.154-12.382 27.322-10.847 42.876 0.102 1.637 0.307 3.070 0.409 4.298l6.242 52.801c3.684-2.251 7.368-4.298 11.051-5.628 17.703-5.833 35.099-8.698 52.392-8.698s34.587 2.865 52.392 8.698c3.684 1.33 7.368 3.377 11.051 5.628l6.14-52.801c0.102-1.228 0.205-2.763 0.409-4.298 1.433-15.554 1.842-31.722-10.233-42.262zM595.858 109.881c-1.023-0.819-1.944-1.637-2.968-2.456-1.637-1.228-3.377-2.456-5.014-3.581-1.228-0.819-2.456-1.74-3.581-2.456-2.149-1.33-4.195-2.456-6.242-3.684-0.614-0.307-1.228-0.614-1.74-0.921-3.479-1.74-6.856-3.172-10.335-4.298-18.317-5.014-36.224-7.47-54.029-7.47s-35.61 2.558-54.029 7.47c-5.219 1.637-10.233 4.195-15.247 7.163-2.251 1.228-4.4 2.661-6.447 4.093-0.409 0.307-0.716 0.512-1.126 0.819-4.4 3.172-8.596 6.549-12.382 10.233 0 0-0.102 0-0.102 0-10.335 9.721-18.214 20.67-20.466 29.266-4.809 16.475-8.903 33.257-12.586 50.346-3.991 1.33-7.265 4.502-8.289 8.596l-15.554 62.523c-1.535 6.037 2.456 12.177 8.903 14.019-1.842 13.814-3.684 27.833-5.321 41.75-0.205 2.968-0.614 6.549-1.023 10.744 42.569 10.233 78.691 34.996 102.328 68.151 40.522-40.317 107.445-68.151 184.498-72.653-0.205-2.251-0.409-4.298-0.512-6.242-1.637-13.917-3.377-27.936-5.219-41.75 6.344-1.842 10.437-7.982 8.8-14.019l-15.554-62.523c-1.023-4.093-4.298-7.163-8.289-8.596-0.205-1.023-0.512-1.944-0.716-2.968-0.307-0.102-0.512-0.409-0.819-0.409-10.949-3.786-45.127-13.2-70.607-20.159-7.163 7.572-23.024 13.303-40.727 14.121-23.024 1.126-39.192-13.712-36.122-33.257 3.070-19.442 23.024-28.754 44.615-20.977 16.27 5.935 29.368 15.656 34.28 24.661 21.182 5.73 49.015 13.405 64.979 18.214-2.456-9.824-4.707-19.852-7.368-29.471-2.354-8.596-10.335-19.749-20.875-29.573-1.637-1.74-3.377-3.172-5.116-4.707z" />
<glyph unicode="&#xe92f;" glyph-name="sound" d="M862.628 360.791c-0.614 0-1.228-0.205-1.842-0.205 0 142.032 0 265.133 0 281.198-120.85-145.409-197.289-197.903-398.671-197.903h-277.515c-18.828-41.443-28.652-82.374-33.257-121.157h-32.643c-29.471 0-53.518-24.047-53.518-53.518s24.047-53.518 53.518-53.518h32.745c9.005-76.030 33.052-127.706 33.052-127.706s25.787-0.819 78.691-1.126l80.635-311.283h119.315l-77.258 311.488c23.433 0.205 48.606 0.512 76.235 0.921 177.744 0 256.435-28.14 398.569-197.084 0 0 0 127.808 0 278.026 0.614 0 1.228-0.205 1.842-0.205 53.006 0 95.984 42.978 95.984 95.984 0.102 53.108-42.876 96.086-95.882 96.086z" />
<glyph unicode="&#xe930;" glyph-name="trash" d="M652.241-142.972c15.452 0 28.038 12.484 28.038 27.936v334.921c0 15.452-12.586 27.936-28.038 27.936s-28.038-12.484-28.038-27.936v-335.023c-0.102-15.349 12.484-27.833 28.038-27.833zM820.469 527.074h-168.228v55.769c0 30.801-25.070 55.871-56.076 55.871h-168.33c-31.005 0-56.076-24.968-56.076-55.871v-55.871h-168.33c-31.005 0-56.076-24.968-56.076-55.871v-55.871c0-30.801 25.070-55.871 56.076-55.871v-502.535c0-61.704 50.243-111.64 112.254-111.64h392.736c62.011 0 112.152 50.039 112.152 111.64v502.739c31.005 0 56.076 24.968 56.076 55.871v55.871c0 30.699-25.173 55.769-56.178 55.769zM427.835 554.908c0 15.452 12.586 27.936 28.038 27.936h112.152c15.452 0 28.038-12.484 28.038-27.936v-27.936c-27.219 0-168.33 0-168.33 0v27.936zM764.393-142.972c0-30.801-25.070-55.871-56.076-55.871h-392.736c-31.005 0-56.076 24.968-56.076 55.871v502.535c38.578 0 473.371 0 504.888 0v-502.535zM792.431 415.332h-560.964c-15.452 0-28.038 12.484-28.038 27.936s12.586 27.936 28.038 27.936h560.964c15.452 0 28.038-12.484 28.038-27.936s-12.484-27.936-28.038-27.936zM371.657-142.972c15.452 0 28.038 12.484 28.038 27.936v334.921c0 15.452-12.586 27.936-28.038 27.936s-28.038-12.484-28.038-27.936v-335.023c0-15.349 12.586-27.833 28.038-27.833zM511.949-142.972c15.452 0 28.038 12.484 28.038 27.936v334.921c0 15.452-12.586 27.936-28.038 27.936s-28.038-12.484-28.038-27.936v-335.023c0-15.349 12.586-27.833 28.038-27.833z" />
<glyph unicode="&#xe931;" glyph-name="personright" d="M702.791-192.908c-50.243-3.684-112.664-6.037-190.74-6.037-340.753 0-387.518 45.024-389.052 46.764 31.312 79.918 78.384 94.244 120.134 101.407 49.22 8.493 100.793 26.605 128.422 41.034l27.424 14.428c0 0 0.819 35.201 1.33 57.611 33.768-23.433 71.732-37.964 111.947-37.964 40.010 0 77.77 14.326 111.333 37.555 0.409-22.512 1.023-56.895 1.023-56.895l27.424-14.633c10.642-5.628 24.968-11.87 41.443-17.805 11.256 19.34 25.275 36.941 41.545 45.127-23.536 7.265-43.592 15.452-55.257 21.591 0 47.992-0.716 62.932-0.819 73.369 51.778 60.988 84.626 144.078 84.626 218.778 0.102 169.763-83.807 307.292-251.216 307.292-167.307 0-251.318-137.529-251.318-307.087 0-74.495 32.336-156.972 83.5-217.652 0.102-26.708 0.102-68.253-0.409-74.495-20.363-10.642-65.183-27.219-111.129-35.201-55.053-9.517-123.408-33.564-163.828-136.506-6.856-17.498-4.4-36.531 6.754-52.085 41.443-58.123 260.119-70.3 436.226-70.3 78.998 0 166.386 2.456 242.723 10.437-12.791 11.051-33.257 29.88-52.085 51.267zM316.604 331.627c0 138.757 65.49 251.318 195.754 251.318 130.366 0 195.754-112.459 195.754-251.318 0-113.482-87.593-251.216-195.754-251.216-108.059-0.102-195.754 137.222-195.754 251.216zM950.426-74.105l-98.338 108.57c-10.847 11.665-28.447 11.665-39.294 0s-10.847-30.494 0-42.159l50.857-57.611h-153.8c-15.349 0-27.833-13.303-27.833-29.778s12.484-29.778 27.833-29.778h153.8l-50.96-57.713c-10.847-11.665-10.847-30.494 0-42.159s28.447-11.665 39.294 0l98.338 108.57c10.949 11.563 10.949 30.494 0.102 42.057z" />
<glyph unicode="&#xe932;" glyph-name="qrcode" d="M742.188 596.862v0h165.874v-148.683c0 0 0 0 0 0 0-11.563 9.414-20.977 20.977-20.977s20.977 9.414 20.977 20.977v169.558c0 11.563-9.414 20.977-20.977 20.977h-186.852c-11.563 0-20.977-9.414-20.977-20.977s9.414-20.875 20.977-20.875zM94.961 427.202c11.563 0 20.977 9.414 20.977 20.977v148.683h183.065c11.563 0 20.977 9.414 20.977 20.977s-9.414 20.977-20.977 20.977c0 0 0 0 0 0h-204.043c-11.563 0-20.977-9.414-20.977-20.977v-169.66c0 0 0 0 0 0 0-11.665 9.414-20.977 20.977-20.977zM928.937-26.011c-11.563 0-20.977-9.414-20.977-20.977 0 0 0 0 0 0v-165.874h-165.772c-11.563 0-20.977-9.414-20.977-20.977s9.414-20.977 20.977-20.977h186.749c11.563 0 20.977 9.414 20.977 20.977v186.954c0 11.563-9.414 20.875-20.977 20.875zM298.901-212.862h-183.065v165.977c0 11.563-9.414 20.977-20.977 20.977s-20.977-9.414-20.977-20.977v0-186.852c0-11.563 9.414-20.977 20.977-20.977h203.94c11.563 0 20.977 9.414 20.977 20.977s-9.312 20.875-20.875 20.875zM94.961 178.032h833.976c11.563 0 20.977 9.414 20.977 20.977s-9.414 20.977-20.977 20.977h-833.976c-11.563 0-20.977-9.414-20.977-20.977s9.414-20.977 20.977-20.977z" />
<glyph unicode="&#xe933;" glyph-name="service" d="M891.587-149.828c-34.689 88.309-93.221 108.877-140.497 117.064-39.396 6.856-77.872 20.977-95.268 30.289 0 37.555-0.512 51.471-0.716 60.476l2.251 3.684c11.051 11.665 18.419 24.456 19.545 35.917 2.558 22.512 5.219 45.024 7.879 67.434 3.172-3.377 7.368-5.73 12.279-6.242 10.744-1.023 20.466 6.754 21.591 17.498l2.456 23.433c10.949 9.619 20.056 23.74 26.401 40.42 2.558-2.047 5.423-3.786 8.903-4.298 10.744-1.842 20.977 5.219 22.819 15.759l5.628 31.415c1.842 10.54-5.321 20.568-15.861 22.512-5.321 0.921-10.437-0.307-14.531-3.070-1.637 11.768-4.4 22.819-9.312 31.722 5.73 13.098 10.54 26.503 13.61 40.42 11.768 43.183 5.628 87.9-14.428 127.808 1.842 5.116 1.535 10.744-1.535 16.168-40.829 70.914-131.697 120.543-231.364 120.134-99.566 0.409-190.433-49.22-231.262-120.134-3.172-5.321-3.377-11.051-1.535-16.168-20.056-39.908-26.298-84.626-14.531-127.808 3.172-13.917 8.084-27.322 13.712-40.42-4.809-8.903-7.675-19.954-9.312-31.722-4.093 2.763-9.312 3.991-14.531 3.070-10.642-1.944-17.805-11.972-15.963-22.512l5.628-31.415c1.842-10.54 12.075-17.703 22.717-15.759 3.479 0.614 6.344 2.251 8.903 4.4 5.833-15.554 14.224-28.447 24.149-37.964l2.661-25.991c1.126-10.744 10.847-18.521 21.694-17.498 5.014 0.512 9.21 2.968 12.382 6.344 2.661-22.512 5.321-45.024 7.982-67.434 1.023-11.563 8.391-24.456 19.545-36.122l4.605-7.572c0.102-22.512 0.102-51.573-0.307-56.383-17.498-9.21-55.871-23.331-95.268-30.187-47.173-8.084-105.808-28.754-140.497-117.064-5.833-15.042-3.786-31.312 5.73-44.615 35.61-49.834 222.974-60.271 373.908-60.271s338.4 10.437 373.908 60.271c9.619 13.098 11.665 29.368 5.833 44.411zM311.488 382.177c-1.535 0-2.968 0.409-4.502 0.102-2.865-0.512-5.423-1.74-7.879-3.070-0.205 0.819-0.409 1.637-0.614 2.456-8.8 37.452-2.558 75.518 15.145 109.184 4.912 2.149 9.414 5.321 12.177 9.824 34.689 56.69 107.035 94.961 185.624 94.858 78.691 0.205 150.934-38.168 185.521-94.858 2.865-4.502 7.265-7.47 12.177-9.517 17.703-33.768 24.047-71.937 15.247-109.389-0.102-0.819-0.409-1.637-0.614-2.456-2.456 1.33-5.014 2.558-7.879 3.070-2.149 0.409-4.298 0-6.447-0.205 2.456 33.871 1.637 85.342-39.294 121.566-38.066 36.941-98.849 55.462-159.735 55.462-60.783 0-121.668-18.521-159.632-55.462-40.829-36.327-41.75-87.695-39.294-121.566zM350.782 361.507c-0.205 2.865-0.512 6.037-0.819 9.721-2.661 28.243-7.265 75.621 25.787 104.784 0.409 0.409 0.921 0.819 1.33 1.228 28.857 28.038 78.793 44.82 133.436 44.82 54.746 0 104.682-16.782 133.539-44.922 0.409-0.409 0.819-0.819 1.228-1.228 30.494-27.015 29.266-68.355 25.787-104.887-0.307-3.581-0.614-6.754-0.819-9.619l-10.335-87.695c-2.968-25.377-5.935-50.857-9.005-76.337l-6.447-11.768c-0.102-0.102-7.47-12.893-23.126-17.293-11.256-3.172-46.355-10.642-72.448-16.066-7.265 7.163-23.433 13.2-41.648 14.633-23.536 1.842-40.215-11.358-37.145-29.471 2.968-18.112 23.536-27.526 45.741-21.080 16.577 4.809 30.085 13.507 35.099 21.591 26.401 5.526 63.546 13.507 75.723 16.782 21.898 6.14 31.722 23.536 32.131 24.252l37.861 68.458-27.322-73.267c-0.307-0.716-6.958-16.27-24.149-25.991-1.842-15.759-3.684-31.312-5.526-47.173-0.614-4.195-6.549-12.279-15.656-19.954l-226.555-0.307c-9.414 7.777-15.452 16.27-16.168 21.080l-10.642 90.765-19.852 168.944zM511.949-206.927c-292.045 0-332.158 38.578-333.488 40.113 26.912 68.458 67.23 80.737 102.942 86.979 42.159 7.265 86.365 22.819 110.105 35.201l23.536 12.279c0 0 1.535 66.718 1.535 65.081 53.518-0.102 188.591 0.409 190.842 0.409-0.102 1.637 1.126-65.081 1.126-65.081l23.536-12.484c23.433-12.484 67.741-28.038 110.412-35.406 35.713-6.14 76.030-18.521 103.249-86.877-1.637-1.637-41.75-40.215-333.795-40.215z" />
</font>
</defs>
</svg>
