<?xml version="1.0" encoding="utf-8"?>
<!-- Generator: Adobe Illustrator 19.1.0, SVG Export Plug-In . SVG Version: 6.00 Build 0)  -->
<svg version="1.1" id="图层_1" xmlns="http://www.w3.org/2000/svg" xmlns:xlink="http://www.w3.org/1999/xlink" x="0px" y="0px"
	 viewBox="0 0 300 300" enable-background="new 0 0 300 300" xml:space="preserve">
<path fill-rule="evenodd" clip-rule="evenodd" fill="#11CDDE" d="M209.939,211.955c-13.575,0-24.581-10.991-24.581-24.55
	s11.005-24.55,24.581-24.55c13.576,0,24.581,10.992,24.581,24.55S223.515,211.955,209.939,211.955z M217.84,195.296
	c-0.873,0.872-2.287,0.872-3.16,0l-4.74-4.735l-4.74,4.735c-0.873,0.872-2.288,0.872-3.16,0c-0.873-0.872-0.873-2.285,0-3.156
	l4.74-4.734l-4.74-4.735c-0.873-0.872-0.873-2.285,0-3.156c0.873-0.872,2.288-0.872,3.16,0l4.74,4.735l4.74-4.735
	c0.873-0.872,2.287-0.872,3.16,0s0.873,2.285,0,3.156l-4.74,4.735l4.74,4.734C218.712,193.011,218.712,194.424,217.84,195.296z"/>
<path fill-rule="evenodd" clip-rule="evenodd" fill="#C4C9CD" d="M279.191,120.493c-0.834,0.898-1.954,1.379-3.086,1.417
	c-1.133,0.035-2.278-0.359-3.169-1.208C202.876,54.405,96.24,54.149,35.22,120.138c-1.671,1.807-4.472,1.903-6.257,0.206
	c-1.786-1.681-1.876-4.516-0.208-6.323c64.349-69.599,176.598-69.541,250.224,0.145
	C280.768,115.854,280.864,118.681,279.191,120.493z M151.951,105.602c33.768,0.05,66.414,13.366,91.922,37.514
	c1.786,1.692,1.881,4.523,0.212,6.331c-0.839,0.902-1.958,1.379-3.087,1.414c-1.132,0.042-2.282-0.359-3.173-1.204
	c-23.867-22.585-54.372-35.053-85.888-35.095c-31.429-0.057-60.091,12.254-80.784,34.629c-1.67,1.807-4.47,1.906-6.255,0.217
	c-1.788-1.693-1.881-4.524-0.21-6.331C87.079,118.861,118.066,105.533,151.951,105.602z M193.426,158.923
	c-3.115,1.41-5.91,3.395-8.251,5.824c-26.859-12.597-58.651-8.144-78.633,13.465c-1.671,1.811-4.467,1.903-6.253,0.21
	c-1.787-1.685-1.88-4.516-0.209-6.327C123.873,146.36,162.313,141.978,193.426,158.923z M151.637,198.341
	c5.424,0,9.836,4.198,9.836,9.35c0,5.158-4.412,9.357-9.836,9.357c-5.423,0-9.835-4.199-9.835-9.357
	C141.802,202.539,146.214,198.341,151.637,198.341z"/>
<path fill-rule="evenodd" clip-rule="evenodd" fill="#F2F2F2" d="M153.973,222.443c34.485,0,62.44,5.124,62.44,11.445
	c0,6.321-27.955,11.445-62.44,11.445c-34.484,0-62.44-5.124-62.44-11.445C91.534,227.567,119.489,222.443,153.973,222.443z"/>
</svg>
