<?xml version="1.0" standalone="no"?>
<!DOCTYPE svg PUBLIC "-//W3C//DTD SVG 1.1//EN" "http://www.w3.org/Graphics/SVG/1.1/DTD/svg11.dtd" >
<svg xmlns="http://www.w3.org/2000/svg">
<metadata>Generated by IcoMoon</metadata>
<defs>
<font id="iconfont" horiz-adv-x="1024">
<font-face units-per-em="1024" ascent="960" descent="-64" />
<missing-glyph horiz-adv-x="1024" />
<glyph unicode="&#x20;" horiz-adv-x="512" d="" />
<glyph unicode="&#xe900;" glyph-name="hook-fill" d="M940.807 647.898v0l-490.153-490.255c-11.563-11.563-27.526-18.726-45.229-18.726s-33.666 7.163-45.229 18.726v0l-277.105 277.105c-11.563 11.563-18.726 27.526-18.726 45.229 0 35.303 28.652 63.955 63.955 63.955 17.703 0 33.666-7.163 45.229-18.726v0l231.876-231.876 444.924 445.026c11.563 11.563 27.526 18.726 45.229 18.726 35.303 0 63.955-28.652 63.955-63.955 0-17.703-7.163-33.666-18.726-45.229z" />
<glyph unicode="&#xe901;" glyph-name="arrowdown" d="M472.859 211.161l-391.508 394.783c-21.591 21.796-21.591 57.202 0 78.998s56.69 21.796 78.281 0l352.317-355.284 352.317 355.284c21.591 21.796 56.69 21.796 78.281 0s21.591-57.202 0-78.998l-391.406-394.783c-21.694-21.796-56.69-21.796-78.281 0z" />
<glyph unicode="&#xe902;" glyph-name="arrowleft" d="M275.059 487.141l394.783 391.406c21.796 21.591 57.202 21.591 78.998 0s21.796-56.69 0-78.281l-355.284-352.317 355.284-352.317c21.796-21.591 21.796-56.69 0-78.281s-57.202-21.591-78.998 0l-394.783 391.508c-21.796 21.591-21.796 56.69 0 78.281z" />
<glyph unicode="&#xe903;" glyph-name="arrowright" d="M748.839 408.859l-394.783-391.406c-21.796-21.591-57.202-21.591-78.998 0s-21.796 56.69 0 78.281l355.284 352.317-355.284 352.214c-21.796 21.591-21.796 56.69 0 78.281s57.202 21.591 78.998 0l394.783-391.406c21.796-21.591 21.796-56.69 0-78.281z" />
<glyph unicode="&#xe904;" glyph-name="arrowup" d="M551.141 684.839l391.406-394.783c21.591-21.796 21.591-57.202 0-78.998s-56.69-21.796-78.281 0l-352.317 355.386-352.317-355.284c-21.591-21.796-56.69-21.796-78.281 0s-21.591 57.202 0 78.998l391.406 394.783c21.694 21.694 56.69 21.694 78.384-0.102z" />
<glyph unicode="&#xe905;" glyph-name="chatline" d="M901.104 170.639h-444.719l-139.064-138.655h-27.731c-30.699 0-55.564 24.866-55.564 55.462v83.193h-111.231c-30.699 0-55.564 24.866-55.564 55.462v582.555c0 30.596 24.866 55.462 55.564 55.462h778.31c30.699 0 55.564-24.866 55.564-55.462v-582.453c0-30.699-24.866-55.564-55.564-55.564zM873.373 780.823h-722.848v-526.991h166.795v-104.17l104.477 104.17h451.473v526.991z" />
<glyph unicode="&#xe906;" glyph-name="chats" d="M723.666 521.625c0 158.814-144.078 287.952-321.209 287.952s-321.209-129.241-321.209-287.952c0-77.36 34.28-147.762 89.844-199.54l-31.108-87.9c-5.219-14.735 0.409-24.149 12.791-24.149 2.865 0 6.037 0.512 9.517 1.535l114.198 34.485c4.4 1.228 8.391 3.377 11.768 6.447 36.634-12.484 75.007-18.828 113.789-18.828 0.205 0 0.409 0 0.512 0 177.028 0 321.106 129.138 321.106 287.952zM402.048 285.349c-33.052 0-65.695 5.423-97.007 16.066-5.526 1.842-11.154 2.763-16.782 2.763-10.744 0-21.387-3.377-30.187-9.721l-46.764-14.121 8.698 24.456c6.856 19.442 1.535 41.034-13.507 55.053-47.378 44.104-73.472 101.51-73.472 161.781 0 130.264 120.85 236.276 269.431 236.276s269.431-106.012 269.431-236.276-120.85-236.276-269.84-236.276zM904.071 240.325c-0.307 1.228-0.716 2.558-1.228 3.684 44.308 49.322 70.914 112.050 70.914 180.405 0 147.66-124.124 269.226-283.757 285.394 42.466-52.904 67.537-117.882 67.537-188.080 0-162.497-134.255-297.162-307.599-318.139 55.36-41.341 126.478-66.104 204.145-66.104 0.307 0 0.512 0 0.819 0 44.206 0 88.105 8.391 129.138 24.763 1.023-0.409 2.047-0.819 3.070-1.228l117.371-39.396c3.684-1.228 7.061-1.842 10.131-1.842 12.177 0 18.521 9.414 14.633 24.252l-25.173 96.291zM863.754 189.774l-59.657 20.056-39.294 0.409c-35.099-14.019-72.142-21.080-110.822-21.080-19.238 0-38.373 1.842-56.997 5.423 127.194 63.853 212.127 187.875 212.127 327.246 0 35.61-5.423 70.607-16.066 104.068 77.77-41.545 128.729-116.654 128.729-201.382 0-53.415-19.954-103.863-57.713-145.818l-9.721-53.211c-0.205 0.614-0.409 1.228-0.614 1.842l10.028-37.555z" />
<glyph unicode="&#xe907;" glyph-name="del" d="M806.45 779.288c-182.963 162.6-463.138 146.125-625.738-36.838s-146.125-463.036 36.736-625.738c182.963-162.6 463.036-146.125 625.738 36.736 162.6 183.065 146.227 463.138-36.736 625.84zM793.761 197.961c-137.939-155.13-376.978-169.66-532.21-31.619s-170.479 375.238-34.587 528.117c135.892 152.879 375.443 177.13 535.28 35.099 155.232-138.041 169.353-376.466 31.517-531.596zM636.994 592.232l-126.069-106.217-125.455 111.538c-11.461 10.131-28.959 9.107-39.089-2.251-10.131-11.461-24.354-37.657-12.893-47.89l121.873-108.366-114.812-96.803c-11.665-9.824-13.2-27.322-3.275-38.987 9.824-11.665 33.768-29.471 45.536-19.647l126.99 107.035 121.873-108.366c11.461-10.131 35.815 6.958 46.048 18.419 10.131 11.461 9.107 28.959-2.251 39.089l-109.901 97.724 122.078 103.249c11.665 9.824-1.74 36.429-11.665 48.197-9.824 11.665-27.322 13.098-38.987 3.275z" />
<glyph unicode="&#xe908;" glyph-name="edit-fill" d="M157.79 250.25l470.301 470.711 156.767-156.869-470.301-470.711-156.767 156.869zM784.859 877.83c21.694 21.694 56.69 21.694 78.384 0l78.384-78.486c21.694-21.694 21.694-56.792 0-78.486l-117.575-117.678-156.767 156.972 117.575 117.678zM66.104 1.899l52.187 209.159 156.767-156.972-208.955-52.187z" />
<glyph unicode="&#xe909;" glyph-name="filter" d="M958.714 820.629c-3.888 9.005-12.996 14.94-23.024 14.94h-847.484c-10.131 0-19.135-5.935-23.024-14.94-3.888-9.107-1.74-19.442 5.423-26.401l316.706-307.804v-401.741c0-8.391 4.502-16.168 11.87-20.568 3.991-2.354 8.493-3.581 13.098-3.581 3.786 0 7.675 0.819 11.154 2.558l199.438 96.905c8.493 4.093 13.814 12.484 13.814 21.694v304.734l316.706 307.804c7.061 6.856 9.21 17.293 5.321 26.401zM583.169 541.477c-14.838-14.428-23.229-34.28-23.229-55.053v-271.784l-95.779-46.559v318.344c0 20.773-8.391 40.624-23.229 55.053l-223.792 217.345h589.616l-223.587-217.345z" />
<glyph unicode="&#xe90a;" glyph-name="label" d="M943.365 459.614l-443.082-443.082c-10.949-10.949-25.275-16.373-39.601-16.373s-28.652 5.423-39.601 16.373l-340.549 340.753c-10.54 10.54-16.373 24.763-16.373 39.601s5.935 29.061 16.373 39.601l443.082 443.082c10.54 10.54 24.763 16.373 39.601 16.373h340.651c14.838 0 29.061-5.935 39.601-16.373 10.54-10.54 16.373-24.763 16.373-39.601v-340.651c0-14.94-5.935-29.164-16.475-39.703zM159.632 396.785l301.050-301.152 60.067 60.067-300.948 301.255-60.169-60.169zM875.829 811.931h-301.050l-295.627-295.627 301.050-301.152 295.627 295.627v301.152zM707.908 699.984c30.903 0 55.974-25.070 55.974-55.974s-25.070-55.974-55.974-55.974c-30.903 0-55.974 25.070-55.974 55.974s25.070 55.974 55.974 55.974z" />
<glyph unicode="&#xe90b;" glyph-name="menudot" d="M511.949 895.533c-247.225 0-447.584-200.359-447.584-447.584s200.359-447.584 447.584-447.584c247.225 0 447.584 200.359 447.584 447.584s-200.359 447.584-447.584 447.584zM511.949 39.352c-225.634 0-408.597 182.963-408.597 408.597 0 225.736 182.963 408.7 408.597 408.7 225.736 0 408.7-182.963 408.7-408.7 0-225.634-182.963-408.597-408.7-408.597zM346.586 637.359c-22.717 0-41.136-18.521-41.136-41.341s18.419-41.341 41.136-41.341c22.717 0 41.136 18.521 41.136 41.341s-18.419 41.341-41.136 41.341zM346.586 341.22c-22.717 0-41.136-18.521-41.136-41.341s18.419-41.341 41.136-41.341c22.717 0 41.136 18.521 41.136 41.341 0 22.922-18.419 41.341-41.136 41.341zM346.586 489.289c-22.717 0-41.136-18.521-41.136-41.341s18.419-41.341 41.136-41.341c22.717 0 41.136 18.521 41.136 41.341s-18.419 41.341-41.136 41.341zM715.173 616.688h-241.802c-11.358 0-20.568-9.21-20.568-20.67 0-11.358 9.21-20.67 20.568-20.67h241.904c11.358 0 20.568 9.21 20.568 20.67-0.102 11.461-9.312 20.67-20.67 20.67zM715.173 468.619h-241.802c-11.358 0-20.568-9.21-20.568-20.67 0-11.358 9.21-20.67 20.568-20.67h241.904c11.358 0 20.568 9.21 20.568 20.67-0.102 11.461-9.312 20.67-20.67 20.67zM715.173 320.652h-241.802c-11.358 0-20.568-9.21-20.568-20.67s9.21-20.67 20.568-20.67h241.904c11.358 0 20.568 9.21 20.568 20.67-0.102 11.358-9.312 20.67-20.67 20.67z" />
<glyph unicode="&#xe90c;" glyph-name="person" d="M719.675 403.231c32.745 51.471 52.392 115.324 52.392 184.703 0 170.070-116.45 307.906-260.016 307.906-143.669 0-260.016-137.836-260.016-307.906 0-69.379 19.647-133.232 52.29-184.703-134.459-61.806-225.736-181.326-225.736-319.060v-28.038c0-30.903 25.889-55.974 57.816-55.974h751.193c31.926 0 57.816 25.070 57.816 55.974v28.038c-0.102 137.734-91.379 257.254-225.736 319.060zM511.949 811.931c93.937 0 173.344-102.533 173.344-223.894s-79.407-223.894-173.344-223.894c-93.937 0-173.344 102.533-173.344 223.894 0 121.259 79.407 223.894 173.344 223.894zM165.26 84.171c0 111.129 80.635 207.113 197.084 252.239 42.364-35.406 93.937-56.383 149.706-56.383s107.342 20.977 149.706 56.383c116.45-45.127 197.084-141.213 197.084-252.239h-693.582z" />
<glyph unicode="&#xe90d;" glyph-name="position" d="M511.949 122.34l31.926 45.945c23.638 34.075 230.75 336.456 230.75 467.231 0 143.669-117.78 260.528-262.677 260.528s-262.677-116.859-262.677-260.528c0-130.776 207.215-433.156 230.853-467.231l31.824-45.945zM511.949 819.196c102.124 0 185.214-82.374 185.214-183.679 0-70.914-103.249-251.625-185.214-376.364-81.965 124.738-185.214 305.348-185.214 376.364 0 101.305 83.091 183.679 185.214 183.679zM734.718 311.443l-37.145 10.949-22.103-73.574 37.145-10.949c77.258-22.819 105.398-52.494 105.501-66.82 0.102-31.722-107.752-93.63-305.859-94.142-86.672-0.512-169.149 12.382-230.034 35.406-52.392 19.852-76.337 43.49-76.337 57.099 0 14.224 27.424 43.694 103.147 66.82l37.043 11.358-22.819 73.369-37.043-11.358c-101.919-31.21-157.893-81.044-157.79-140.395 0.102-30.187 16.577-87.081 126.171-128.627 68.867-26.094 159.428-40.42 255.207-40.42 0.921 0 1.74 0 2.661 0 190.638 0.512 383.322 59.453 383.015 171.195-0.102 59.657-57.202 109.491-160.758 140.088zM589.104 643.498c0 42.159-34.587 76.542-77.156 76.542s-77.156-34.28-77.156-76.542c0-42.159 34.587-76.542 77.156-76.542 42.569 0.102 77.156 34.382 77.156 76.542z" />
<glyph unicode="&#xe90e;" glyph-name="qrcodeline" d="M749.658 811.522v0h125.864v-125.864c0 0 0 0 0 0 0-23.126 18.828-41.955 41.955-41.955s41.955 18.828 41.955 41.955v167.819c0 23.126-18.828 41.955-41.955 41.955h-167.819c-23.126 0-41.955-18.828-41.955-41.955s18.828-41.955 41.955-41.955zM106.524 643.703c23.126 0 41.955 18.828 41.955 41.955v125.864h125.864c23.126 0 41.955 18.828 41.955 41.955s-18.828 41.955-41.955 41.955c0 0 0 0 0 0h-167.819c-23.126 0-41.955-18.828-41.955-41.955v-167.819c0 0 0 0 0 0 0-23.126 18.726-41.955 41.955-41.955zM917.476 252.195c-23.126 0-41.955-18.828-41.955-41.955 0 0 0 0 0 0v-125.864h-125.864c-23.126 0-41.955-18.828-41.955-41.955s18.828-41.955 41.955-41.955h167.819c23.126 0 41.955 18.828 41.955 41.955v167.819c0 23.229-18.828 41.955-41.955 41.955zM274.24 84.478h-125.864v125.864c0 23.126-18.828 41.955-41.955 41.955s-41.955-18.828-41.955-41.955v0-167.819c0-23.126 18.828-41.955 41.955-41.955h167.819c23.126 0 41.955 18.828 41.955 41.955s-18.726 41.955-41.955 41.955zM106.524 420.013h810.952c23.126 0 41.955 18.828 41.955 41.955s-18.828 41.955-41.955 41.955h-810.952c-23.126 0-41.955-18.828-41.955-41.955s18.726-41.955 41.955-41.955z" />
<glyph unicode="&#xe90f;" glyph-name="rdoadd" d="M511.949 895.738c-247.328 0-447.789-200.461-447.789-447.789s200.461-447.789 447.789-447.789c247.328 0 447.789 200.461 447.789 447.789s-200.461 447.789-447.789 447.789zM511.949 39.147c-225.736 0-408.802 183.065-408.802 408.802 0 225.839 183.065 408.904 408.802 408.904s408.802-183.065 408.802-408.802c0-225.839-182.963-408.904-408.802-408.904zM691.33 462.889h-155.437v155.437c0 10.744-8.698 19.442-19.442 19.442s-19.442-8.698-19.442-19.442v-155.437h-155.334c-10.744 0-19.442-8.698-19.442-19.442s8.698-19.442 19.442-19.442h155.437v-155.437c0-10.744 8.698-19.442 19.442-19.442s19.442 8.698 19.442 19.442v155.437h155.437c10.744 0 19.442 8.698 19.442 19.442-0.102 10.744-8.8 19.442-19.545 19.442z" />
<glyph unicode="&#xe910;" glyph-name="rdocancel" d="M511.949 896.147c-247.532 0-448.096-200.666-448.096-448.096 0-247.532 200.666-448.096 448.096-448.096 247.532 0 448.096 200.666 448.096 448.096s-200.564 448.096-448.096 448.096zM511.949 66.878c-210.080 0-380.866 169.046-380.866 375.852s164.749 386.085 380.866 386.085c210.080 0 380.866-170.684 380.866-380.559 0.102-209.773-170.786-381.378-380.866-381.378zM708.010 475.987h-392.122c-15.452 0-28.038-12.586-28.038-28.038s6.958-44.82 22.41-44.82h403.276c15.452 0 22.41 29.368 22.41 44.82 0.102 15.554-12.484 28.038-27.936 28.038z" />
<glyph unicode="&#xe911;" glyph-name="rdosent" d="M511.949 895.328c-243.849 0-441.547-200.257-441.547-447.38 0-247.021 197.698-447.38 441.547-447.38s441.547 200.257 441.547 447.38c0 247.123-197.698 447.38-441.547 447.38zM511.949 39.556c-222.36 0-402.662 182.861-402.662 408.495 0 225.532 180.303 408.495 402.662 408.495s402.662-182.861 402.662-408.495c0-225.634-180.2-408.495-402.662-408.495zM682.837 638.996c-4.809 0-9.414-1.228-13.405-3.377l-398.774-213.559c-9.005-4.809-15.042-14.224-15.042-25.070 0-15.759 12.791-28.447 28.447-28.447h156.665v-156.665c0-15.759 12.791-28.447 28.447-28.447 10.847 0 20.363 6.14 25.173 15.042l213.662 398.774c2.149 3.991 3.377 8.596 3.377 13.405 0 15.554-12.791 28.345-28.55 28.345zM483.502 268.465v114.198c0 15.759-12.791 28.447-28.447 28.447h-114.198l307.19 164.544-164.544-307.19z" />
<glyph unicode="&#xe912;" glyph-name="rdotobottom" d="M648.864 466.061l-102.431-102.84v264.11c0 13.814-11.154 24.968-24.866 24.968s-24.866-11.154-24.866-24.968v-264.11l-102.533 102.84c-9.721 9.721-25.48 9.721-35.201 0s-9.721-25.582 0-35.303l140.599-141.111c5.935-5.935 14.121-7.879 21.796-6.447 7.675-1.33 15.861 0.512 21.796 6.447l140.599 141.111c9.721 9.721 9.721 25.582 0 35.303-9.414 9.721-25.173 9.721-34.894 0zM511.949 895.328c-243.849 0-441.547-200.257-441.547-447.38 0-247.021 197.698-447.38 441.547-447.38s441.547 200.257 441.547 447.38c0 247.123-197.698 447.38-441.547 447.38zM511.949 39.556c-222.36 0-402.662 182.861-402.662 408.495 0 225.532 180.303 408.495 402.662 408.495s402.662-182.861 402.662-408.495c0-225.634-180.2-408.495-402.662-408.495z" />
<glyph unicode="&#xe913;" glyph-name="time" d="M511.949 894.51c-246.202 0-446.459-200.359-446.459-446.459 0-246.202 200.257-446.459 446.459-446.459s446.459 200.257 446.459 446.459c0.102 246.1-200.257 446.459-446.459 446.459zM511.949 78.032c-204.043 0-369.917 165.977-369.917 369.917 0 204.043 165.977 370.019 369.917 370.019s369.917-165.977 369.917-369.917c0.102-204.043-165.874-370.019-369.917-370.019zM707.703 486.22h-157.483v199.233c0 21.080-17.089 38.271-38.271 38.271s-38.271-17.191-38.271-38.271v-237.402c0-21.182 17.089-38.271 38.271-38.271h195.754c21.182 0 38.271 17.191 38.271 38.271s-17.089 38.168-38.271 38.168z" />
<glyph unicode="&#xe914;" glyph-name="trash-fill" d="M141.213 774.376c0 25.582 20.773 46.252 46.355 46.252h231.671v46.252c0 25.582 20.773 46.252 46.355 46.252h92.71c25.582 0 46.355-20.773 46.355-46.252v-46.252h231.671c25.582 0 46.355-20.773 46.355-46.252v-46.252h-741.471v46.252zM836.33 635.517v-570.89c0-25.582-20.773-46.252-46.355-46.252h-556.052c-25.582 0-46.355 20.773-46.355 46.252v617.142h648.762v-46.252zM372.987 542.91c0 25.582-20.773 46.252-46.355 46.252s-46.355-20.773-46.355-46.252v-385.676c0-25.582 20.773-46.252 46.355-46.252s46.355 20.773 46.355 46.252v385.676zM558.304 542.91c0 25.582-20.773 46.252-46.355 46.252s-46.355-20.773-46.355-46.252v-385.676c0-25.582 20.773-46.252 46.355-46.252s46.355 20.773 46.355 46.252v385.676zM743.62 542.91c0 25.582-20.773 46.252-46.355 46.252s-46.355-20.773-46.355-46.252v-385.676c0-25.582 20.773-46.252 46.355-46.252s46.355 20.773 46.355 46.252v385.676z" />
<glyph unicode="&#xe915;" glyph-name="back" d="M352.419 447.949l364.903 390.587c9.414 10.131 9.414 26.503 0 36.634s-24.763 10.131-34.28 0l-376.568-403.071c-6.14-6.549-8.289-15.656-6.447-24.047-1.74-8.391 0.409-17.498 6.447-24.047l376.568-403.071c9.414-10.131 24.763-10.131 34.28 0 9.414 10.131 9.414 26.503 0 36.634l-364.903 390.383z" />
<glyph unicode="&#xe916;" glyph-name="search" d="M955.747 4.253c-7.777-7.777-20.261-7.777-28.038 0l-175.288 175.186c9.721 8.903 19.135 18.214 28.038 28.038l175.288-175.186c7.675-7.777 7.675-20.261 0-28.038zM458.84 104.739c-218.983 0-396.42 177.54-396.42 396.42s177.437 396.42 396.42 396.42c218.88 0 396.42-177.437 396.42-396.42s-177.54-396.42-396.42-396.42zM458.84 857.876c-197.084 0-356.717-159.735-356.717-356.717 0-197.084 159.735-356.717 356.717-356.717 197.084 0 356.717 159.735 356.717 356.717s-159.735 356.717-356.717 356.717z" />
<glyph unicode="&#xe917;" glyph-name="rdocancel-fill" d="M511.949 895.84c-247.328 0-447.891-200.461-447.891-447.891 0-247.328 200.564-447.891 447.891-447.891s447.891 200.564 447.891 447.891c0 247.43-200.564 447.891-447.891 447.891zM700.233 389.622h-350.577c-35.815 0-64.876 29.061-64.876 64.876s29.061 64.876 64.876 64.876h350.475c35.815 0 64.876-29.061 64.876-64.876s-28.959-64.876-64.774-64.876z" />
<glyph unicode="&#xe918;" glyph-name="cbo" d="M511.949 895.533c-247.225 0-447.584-200.359-447.584-447.584s200.359-447.584 447.584-447.584c247.225 0 447.584 200.359 447.584 447.584s-200.359 447.584-447.584 447.584zM511.949 39.352c-225.634 0-408.597 182.963-408.597 408.597s182.963 408.7 408.597 408.7c225.736 0 408.7-182.963 408.7-408.7s-182.963-408.597-408.7-408.597z" />
<glyph unicode="&#xe919;" glyph-name="cbo-fill" d="M511.949 0.16c-247.328 0-447.891 200.461-447.891 447.891s200.564 447.789 447.891 447.789 447.891-200.461 447.891-447.891-200.564-447.789-447.891-447.789zM717.527 585.887c-7.265 7.163-16.782 10.744-26.298 11.051-10.642 0.409-21.387-3.070-29.471-11.051l-209.569-193.401-76.439 74.904c-8.084 7.982-18.828 11.563-29.471 11.051-9.517-0.409-19.033-3.888-26.298-11.051s-10.847-16.475-11.256-25.889c-0.409-10.437 3.172-20.977 11.256-29.061l104.375-102.431c7.675-7.572 17.805-11.358 27.936-11.358s20.159 3.786 27.936 11.358l237.504 220.825c8.084 7.982 11.665 18.521 11.256 29.061-0.614 9.517-4.093 18.828-11.461 25.991z" />
<glyph unicode="&#xe91a;" glyph-name="close-fill" d="M880.74 0.16h-737.583c-43.694 0-78.998 35.406-78.998 78.998v737.685c0 43.694 35.406 78.998 78.998 78.998h737.685c43.694 0 78.998-35.406 78.998-78.998v-737.685c0-43.592-35.406-78.998-79.1-78.998zM757.025 599.497c13.61 13.61 19.545 31.619 18.828 49.425-0.614 15.963-6.651 31.824-18.828 44.104-12.177 12.177-28.038 18.214-44.104 18.828-17.805 0.716-35.815-5.219-49.425-18.828l-151.548-151.548-151.548 151.548c-13.507 13.61-31.517 19.545-49.322 18.828-15.963-0.614-31.824-6.651-44.104-18.828-12.177-12.177-18.214-28.038-18.828-44.104-0.716-17.805 5.219-35.815 18.828-49.425l151.548-151.446-151.548-151.548c-13.61-13.61-19.545-31.619-18.828-49.425 0.614-16.066 6.651-31.824 18.828-44.104 12.177-12.177 28.038-18.214 44.104-18.828 17.805-0.716 35.815 5.219 49.425 18.828l151.548 151.548 151.446-151.548c13.61-13.61 31.619-19.545 49.425-18.828 15.963 0.614 31.824 6.651 44.104 18.828 12.177 12.177 18.214 28.038 18.828 44.104 0.716 17.805-5.219 35.815-18.828 49.425l-151.548 151.548 151.548 151.446z" />
<glyph unicode="&#xe91b;" glyph-name="rdohook" d="M511.949 912.417c-247.225 0-447.584-200.359-447.584-447.584s200.359-447.584 447.584-447.584c247.225 0 447.584 200.359 447.584 447.584s-200.359 447.584-447.584 447.584zM511.949 56.236c-225.634 0-408.597 182.861-408.597 408.597s182.963 408.7 408.597 408.7c225.736 0 408.7-182.963 408.7-408.7s-182.963-408.597-408.7-408.597zM667.897 597.144l-199.95-222.053-112.459 103.966c-7.675 7.777-19.954 7.777-27.629 0s-7.675-20.363 0-28.14l125.25-118.292c4.093-4.093 9.414-5.935 14.735-5.628 5.321-0.307 10.744 1.535 14.735 5.628l212.843 236.379c7.675 7.777 7.675 20.363 0 28.14-7.47 7.777-19.852 7.777-27.526 0z" />
<glyph unicode="&#xe91c;" glyph-name="add-fill" d="M511.949 895.84c-247.328 0-447.891-200.461-447.891-447.891 0-247.328 200.461-447.891 447.891-447.891s447.891 200.564 447.891 447.891c0 247.43-200.564 447.891-447.891 447.891zM651.934 391.975h-84.012v-84.012c0-30.903-25.070-55.974-55.974-55.974s-55.974 25.070-55.974 55.974v84.012h-84.012c-30.903 0-55.974 25.070-55.974 55.974s25.070 55.974 55.974 55.974h84.012v84.012c0 30.903 25.070 55.974 55.974 55.974s55.974-25.070 55.974-55.974v-84.012h84.012c30.903 0 55.974-25.070 55.974-55.974s-25.070-55.974-55.974-55.974z" />
</font>
</defs>
</svg>
